# xmcd
# 
# Track frame offsets:
#     150
#     35570
#     65775
#     118544
#     143151
#     176705
# 
# Disc length: 2820
# 
# Revision: 1
# Processed by: cddbd v1.5.2PL0 Copyright (c) Steve Scherf et al.
# Submitted via: fre:ac v1.0.17
# 
DISCID=570b0206
DTITLE=Eric Clapton - E.C. Was Here
DYEAR=0
DGENRE=blues
TTITLE0=Have You Ever Loved A Woman
TTITLE1=Presence Of The Lord
TTITLE2=Drifting Blues
TTITLE3=Can't Find My Way Home
TTITLE4=Rambling On My Mind
TTITLE5=Further On Up The Road
EXTD=
EXTT0=
EXTT1=
EXTT2=
EXTT3=
EXTT4=
EXTT5=
PLAYORDER=
